<?xml version="1.0" encoding="UTF-8"?>
<!DOCTYPE svg PUBLIC "-//W3C//DTD SVG 1.1//EN" "http://www.w3.org/Graphics/SVG/1.1/DTD/svg11.dtd">
<svg xmlns="http://www.w3.org/2000/svg" version="1.1" width="953px" height="303px" style="shape-rendering:geometricPrecision; text-rendering:geometricPrecision; image-rendering:optimizeQuality; fill-rule:evenodd; clip-rule:evenodd" xmlns:xlink="http://www.w3.org/1999/xlink">
<g><path style="opacity:1" fill="#00adee" d="M 788.5,7.5 C 791.32,7.24751 793.986,7.74751 796.5,9C 842,54.5 887.5,100 933,145.5C 934.805,148.211 934.805,150.878 933,153.5C 887.167,199.333 841.333,245.167 795.5,291C 787.728,293.567 784.561,290.734 786,282.5C 804.5,264 823,245.5 841.5,227C 828.989,225.686 816.322,225.019 803.5,225C 786.333,207.167 769.167,189.333 752,171.5C 733.528,188.971 715.362,206.805 697.5,225C 684.838,225.5 672.171,225.667 659.5,225.5C 659.667,185.165 659.5,144.832 659,104.5C 656.89,90.3855 649.39,80.2188 636.5,74C 660.5,73.3333 684.5,73.3333 708.5,74C 723.613,89.1126 738.779,104.279 754,119.5C 768.5,105 783,90.5 797.5,76C 812.227,75.0174 826.894,74.0174 841.5,73C 823.333,54.8333 805.167,36.6667 787,18.5C 784.689,14.3741 785.189,10.7075 788.5,7.5 Z M 847.5,79.5 C 871.451,102.45 895.118,125.784 918.5,149.5C 896.833,171.833 874.833,193.833 852.5,215.5C 828.043,192.544 804.043,169.044 780.5,145C 803.033,123.299 825.367,101.466 847.5,79.5 Z"/></g>
<g><path style="opacity:1" fill="#01aced" d="M 155.5,8.5 C 162.097,8.67878 164.597,12.0121 163,18.5C 145.5,36 128,53.5 110.5,71C 110.833,71.3333 111.167,71.6667 111.5,72C 223.5,72.3333 335.5,72.6667 447.5,73C 434.61,79.2188 427.11,89.3855 425,103.5C 424.5,144.165 424.333,184.832 424.5,225.5C 318.833,225.333 213.166,225.5 107.5,226C 107.167,226.333 106.833,226.667 106.5,227C 125,245.5 143.5,264 162,282.5C 164.833,291.667 161.667,294.833 152.5,292C 107,246.5 61.5,201 16,155.5C 14.1952,152.789 14.1952,150.122 16,147.5C 62.3949,100.938 108.895,54.6048 155.5,8.5 Z M 144.5,85.5 C 158.837,85.3334 173.171,85.5001 187.5,86C 202.591,89.4247 212.091,98.5914 216,113.5C 216.667,137.5 216.667,161.5 216,185.5C 212.366,200.068 203.2,208.901 188.5,212C 173.837,212.5 159.17,212.667 144.5,212.5C 144.5,170.167 144.5,127.833 144.5,85.5 Z M 238.5,85.5 C 255.833,85.5 273.167,85.5 290.5,85.5C 290.5,93.1667 290.5,100.833 290.5,108.5C 276.833,108.5 263.167,108.5 249.5,108.5C 249.5,118.167 249.5,127.833 249.5,137.5C 257.833,137.5 266.167,137.5 274.5,137.5C 274.5,145.167 274.5,152.833 274.5,160.5C 266.167,160.5 257.833,160.5 249.5,160.5C 249.5,170.167 249.5,179.833 249.5,189.5C 263.167,189.5 276.833,189.5 290.5,189.5C 290.814,197.087 290.481,204.587 289.5,212C 272.5,212.667 255.5,212.667 238.5,212C 233.815,210.65 230.315,207.817 228,203.5C 226.36,168.214 226.027,132.88 227,97.5C 229.019,91.6498 232.852,87.6498 238.5,85.5 Z M 299.5,85.5 C 308.167,85.5 316.833,85.5 325.5,85.5C 331.875,114.001 339.042,142.335 347,170.5C 354.332,142.505 361.666,114.505 369,86.5C 377.441,85.1847 385.941,85.1847 394.5,86.5C 384.888,123.23 375.055,160.23 365,197.5C 360.177,210.498 351.344,214.664 338.5,210C 333.98,206.464 330.814,201.964 329,196.5C 319.006,159.524 309.173,122.524 299.5,85.5 Z M 94.5,86.5 C 96.4837,129.041 96.4837,172.041 94.5,215.5C 73.1396,194.14 51.8063,172.806 30.5,151.5C 51.8545,129.813 73.1878,108.146 94.5,86.5 Z"/></g>
<g><path style="opacity:1" fill="#00adee" d="M 482.5,74.5 C 521.998,73.3354 561.665,73.1688 601.5,74C 593.285,79.2145 586.785,86.0478 582,94.5C 569.667,121.167 557.333,147.833 545,174.5C 543.186,175.76 541.353,175.76 539.5,174.5C 526.606,146.379 513.44,118.379 500,90.5C 495.226,83.8881 489.393,78.5547 482.5,74.5 Z"/></g>
<g><path style="opacity:1" fill="#02aded" d="M 167.5,108.5 C 172.844,108.334 178.177,108.501 183.5,109C 187.066,109.7 189.9,111.533 192,114.5C 193.147,125.907 193.647,137.407 193.5,149C 193.647,160.593 193.147,172.093 192,183.5C 189.9,186.467 187.066,188.3 183.5,189C 178.177,189.499 172.844,189.666 167.5,189.5C 167.5,162.5 167.5,135.5 167.5,108.5 Z"/></g>
<g><path style="opacity:1" fill="#00adee" d="M 467.5,117.5 C 468.643,117.908 469.643,118.575 470.5,119.5C 486.061,152.289 501.894,184.956 518,217.5C 519.833,220.667 522.333,223.167 525.5,225C 505.169,225.5 484.836,225.667 464.5,225.5C 464.333,190.165 464.5,154.832 465,119.5C 465.995,118.934 466.828,118.267 467.5,117.5 Z"/></g>
<g><path style="opacity:1" fill="#00adee" d="M 615.5,117.5 C 617.582,117.624 619.082,118.624 620,120.5C 620.5,155.498 620.667,190.498 620.5,225.5C 599.831,225.667 579.164,225.5 558.5,225C 561.63,222.872 564.463,220.372 567,217.5C 582.924,183.987 599.091,150.654 615.5,117.5 Z"/></g>
</svg>
