<?xml version="1.0" encoding="UTF-8"?>
<!DOCTYPE svg PUBLIC "-//W3C//DTD SVG 1.1//EN" "http://www.w3.org/Graphics/SVG/1.1/DTD/svg11.dtd">
<svg xmlns="http://www.w3.org/2000/svg" version="1.1" width="1024px" height="1024px" style="shape-rendering:geometricPrecision; text-rendering:geometricPrecision; image-rendering:optimizeQuality; fill-rule:evenodd; clip-rule:evenodd" xmlns:xlink="http://www.w3.org/1999/xlink">

<g><path style="opacity:1" fill="#66abe8" d="M 126.5,221.5 C 308.834,221.333 491.167,221.5 673.5,222C 681.021,224.536 683.854,229.702 682,237.5C 576.6,422.631 470.933,607.631 365,792.5C 362.5,796.333 359.333,799.5 355.5,802C 279.167,802.667 202.833,802.667 126.5,802C 120.615,798.02 118.449,792.52 120,785.5C 185.967,670.704 252.134,556.037 318.5,441.5C 252.847,374.681 187.014,308.014 121,241.5C 116.378,232.97 118.211,226.303 126.5,221.5 Z"/></g>
<g><path style="opacity:1" fill="#66abe8" d="M 742.5,222.5 C 746.936,222.21 751.27,222.71 755.5,224C 790.072,238.591 820.239,259.425 846,286.5C 897.766,349.075 910.766,419.075 885,496.5C 865.96,545.534 833.46,582.701 787.5,608C 773.085,615.049 758.418,621.216 743.5,626.5C 794.431,678.599 845.598,730.599 897,782.5C 900.616,791.088 898.449,797.588 890.5,802C 734.833,802.667 579.167,802.667 423.5,802C 416.764,798.024 414.264,792.191 416,784.5C 523.333,598.5 630.667,412.5 738,226.5C 739.667,225.267 741.167,223.933 742.5,222.5 Z"/></g>

<g><path style="opacity:1" fill="#fff" d="M 161.5,247.5 C 171.319,246.506 181.319,246.173 191.5,246.5C 343.373,247.17 495.373,247.836 647.5,248.5C 546.767,424.964 445.767,601.298 344.5,777.5C 280.998,777.832 217.664,777.499 154.5,776.5C 216.057,669.058 277.89,561.725 340,454.5C 342.874,449.591 345.04,444.424 346.5,439C 346.385,436.268 345.552,433.768 344,431.5C 283.299,369.966 222.466,308.633 161.5,247.5 Z"/></g>
<g><path style="opacity:1" fill="#fff" d="M 854.5,775.5 C 719.833,776.833 585.167,776.833 450.5,775.5C 549.505,604.313 648.339,432.98 747,261.5C 748.689,258.109 750.856,255.109 753.5,252.5C 792.187,269.69 823.02,296.024 846,331.5C 882.494,399.675 879.494,466.008 837,530.5C 814.457,560.369 785.623,581.869 750.5,595C 737.315,599.628 723.982,603.628 710.5,607C 703.87,612.395 702.703,618.895 707,626.5C 756.034,676.367 805.201,726.034 854.5,775.5 Z"/></g>

</svg>
